<!DOCTYPE svg PUBLIC "-//W3C//DTD SVG 1.1//EN" "http://www.w3.org/Graphics/SVG/1.1/DTD/svg11.dtd">
<!-- Uploaded to: SVG Repo, www.svgrepo.com, Transformed by: SVG Repo Mixer Tools -->
<svg height="800px" width="800px" version="1.1" id="_x32_" xmlns="http://www.w3.org/2000/svg" xmlns:xlink="http://www.w3.org/1999/xlink" viewBox="0 0 512 512" xml:space="preserve" fill="#FDA31B">
<g id="SVGRepo_bgCarrier" stroke-width="0"/>
<g id="SVGRepo_tracerCarrier" stroke-linecap="round" stroke-linejoin="round"/>
<g id="SVGRepo_iconCarrier"> <style type="text/css"> .st0{fill:#FDA31B;} </style> <g> <path class="st0" d="M510.768,69.362c-2.942-14.212-11.22-28.456-25.465-42.669c-12.649-12.665-25.265-20.611-37.947-24.292 c-9.474-2.776-18.85-3.017-27.426-1.38c-12.898,2.452-23.836,8.744-33.21,15.824c-9.392,7.106-17.387,15.167-24.268,22.024 c-24.368,24.377-56.049,56.058-92.617,92.618c-10.14,10.172-20.179,23.562-30.484,38.696c-15.425,22.68-31.349,49.276-46.99,73.71 c-15.575,24.41-31.084,46.708-44.381,59.948l-88.479,88.479c-15.525-7.065-34.44-4.356-47.19,8.394 c-16.406,16.414-16.406,43.1,0,59.515l39.477,39.468c16.39,16.406,43.084,16.406,59.49-0.008 c12.766-12.75,15.475-31.673,8.411-47.19l88.479-88.479c8.809-8.843,21.675-18.75,36.485-28.922 c22.223-15.276,48.802-31.241,73.402-46.899c24.634-15.716,47.223-30.884,62.449-46.043c36.552-36.56,68.249-68.249,92.617-92.617 c6.1-6.109,13.148-13.115,19.63-21.184c4.854-6.051,9.425-12.725,12.932-20.212C510.984,96.98,513.76,83.558,510.768,69.362z M93.224,481.637c-6.449,6.458-16.938,6.458-23.387,0.009L30.36,442.168c-6.466-6.458-6.466-16.938,0-23.395 c6.466-6.466,16.954-6.466,23.404-0.008l39.477,39.469C99.69,464.691,99.69,475.171,93.224,481.637z M103.596,432.477 l-24.085-24.068l10.439-10.422l34.391,13.746L103.596,432.477z M137.422,398.643l-34.391-13.755l20.012-20.004l34.392,13.754 L137.422,398.643z M170.533,365.541l-34.391-13.747l28.69-28.706l24.068,24.077L170.533,365.541z M485.885,87.33 c-1.38,7.397-5.403,15.027-11.104,22.548c-5.668,7.513-12.866,14.768-19.714,21.608c-24.368,24.368-56.066,56.058-92.618,92.618 c-8.111,8.128-20.512,17.578-35.006,27.435c-21.758,14.818-48.253,30.684-73.103,46.592 c-19.565,12.532-38.014,24.991-52.875,37.524l-25.149-25.149c7.214-8.552,14.395-18.21,21.609-28.698 c15.924-23.179,31.981-49.932,47.406-74.151c15.342-24.185,30.285-45.926,42.552-58.11c36.568-36.56,68.249-68.25,92.617-92.617 c6.083-6.1,12.483-12.459,19.115-17.778c4.97-3.998,10.056-7.38,15.076-9.732c7.612-3.507,14.677-4.829,22.771-3.2 c8.079,1.67,17.952,6.715,29.786,18.525c10.489,10.489,15.642,19.506,17.819,27.011C486.699,77.416,486.799,82.361,485.885,87.33z"/> </g> </g>
</svg>