<!DOCTYPE svg PUBLIC "-//W3C//DTD SVG 1.1//EN" "http://www.w3.org/Graphics/SVG/1.1/DTD/svg11.dtd">
<!-- Uploaded to: SVG Repo, www.svgrepo.com, Transformed by: SVG Repo Mixer Tools -->
<svg height="800px" width="800px" version="1.1" id="_x32_" xmlns="http://www.w3.org/2000/svg" xmlns:xlink="http://www.w3.org/1999/xlink" viewBox="0 0 512 512" xml:space="preserve" fill="#FDA31B">
<g id="SVGRepo_bgCarrier" stroke-width="0"/>
<g id="SVGRepo_tracerCarrier" stroke-linecap="round" stroke-linejoin="round"/>
<g id="SVGRepo_iconCarrier"> <style type="text/css"> .st0{fill:#FDA31B;} </style> <g> <polygon class="st0" points="386.685,265.591 386.685,122.374 125.315,122.374 125.315,265.591 146.797,265.591 146.797,143.857 365.203,143.857 365.203,265.591 "/> <path class="st0" d="M121.636,293.521c0,6.014,4.867,10.881,10.882,10.881h246.951c6,0,10.881-4.867,10.881-10.881 c0-6.021-4.881-10.888-10.881-10.888H132.518C126.504,282.633,121.636,287.5,121.636,293.521z"/> <path class="st0" d="M373.875,312.417l0.21-0.448h-21.064c-0.433,1.105-0.895,2.272-1.412,3.594 c-13.063,7.72-32.07,19.42-52.77,34.916c-2.307-2.245-4.615-4.448-6.853-6.524c-13.315-12.266-25.273-21.497-34.713-26.979 l-2.574-1.552l-2.616,1.552c-9.454,5.482-21.398,14.713-34.712,26.979c-2.266,2.091-4.574,4.23-6.882,6.489 c-20.657-15.462-39.636-27.14-52.686-34.853c-0.517-1.328-0.992-2.517-1.44-3.622h-21.091c1.79,4.014,15.539,36.503,27.189,83.874 c0.728,2.86,1.441,5.79,2.168,8.714c0.448,2.056,0.909,4.112,1.37,6.223c0.517,2.252,0.979,4.546,1.496,6.853 c5.693,27.146,10.196,57.902,11.441,90.147l19.622-0.692c-0.14-4.042-0.392-7.958-0.658-11.881v-0.063 c-0.084-1.265-0.223-2.461-0.307-3.713c5.608-16.105,13.174-31.258,22.182-45.342l0.028,0.034 c10.196,10.308,19.945,21.434,28.826,33.532c-5.832,8.37-11.217,17.182-16.07,26.343h11.343 c3.384-6.042,6.923-11.965,10.797-17.651c3.888,5.686,7.427,11.608,10.811,17.651h11.315c-4.853-9.161-10.21-17.972-16.056-26.343 c8.882-12.098,18.643-23.224,28.769-33.532l0.042-0.042c8.992,14.062,16.56,29.203,22.168,45.287 c-0.084,1.231-0.224,2.412-0.294,3.65c-0.266,3.986-0.532,8.028-0.658,12.07l19.608,0.692c1.315-32.244,5.818-62.881,11.441-90.021 v-0.063c0.518-2.37,1.049-4.664,1.496-6.916c0.461-2.112,0.993-4.168,1.441-6.223c0.657-2.994,1.384-5.854,2.097-8.714 c2.294-9.524,4.713-18.427,7.133-26.581c5.217-17.867,10.322-32.371,14.112-42.399c1.888-5.042,3.469-8.902,4.503-11.518 C373.217,314.038,373.622,313.046,373.875,312.417z M218.294,356.402c2.07-1.958,4.084-3.818,6.014-5.587 c11.692-10.784,22.266-19.014,30.392-24.126c8.14,5.112,18.699,13.343,30.35,24.126c1.93,1.769,3.916,3.671,5.971,5.636 c-6.783,5.293-13.678,10.964-20.559,17.048c-5.286,4.679-10.56,9.608-15.776,14.748c-5.202-5.14-10.475-10.07-15.776-14.748 c-6.895-6.09-13.818-11.776-20.615-17.084V356.402z M166.252,338.941v-0.063c-1.077-3.119-2.098-6.014-3.077-8.763 c11.454,7.036,25.427,16.126,40.364,27.252c-6.629,6.671-13.384,13.944-20.21,21.791c-1.244,1.468-2.49,3.034-3.748,4.524 C175.105,366.374,170.406,351.213,166.252,338.941z M195.651,469.815c-1.58-14.028-3.595-27.545-5.93-40.419 c-0.798-4.336-1.637-8.574-2.518-12.762c1.776,1.44,3.552,2.84,5.328,4.35c2.756,2.322,5.567,4.699,8.322,7.154 c3.93,3.497,7.86,7.12,11.79,10.853C206.266,448.738,200.602,459.053,195.651,469.815z M218.168,430.864 c-3.497-3.342-6.993-6.609-10.573-9.706c-6-5.364-12.056-10.364-18-15.063c-1.888-1.532-3.749-2.888-5.623-4.322 c-0.294-1.259-0.559-2.574-0.853-3.804c-0.196-0.881-0.42-1.692-0.616-2.56l0.267-0.342c1.132-1.42,2.321-2.798,3.44-4.168 c8.518-10.07,16.951-19.356,25.146-27.574c6.84,5.329,13.805,11.021,20.742,17.161c5.287,4.658,10.546,9.588,15.72,14.706 C237.329,406.13,227.258,418.025,218.168,430.864z M254.7,471.311c-9.133-12.028-19.077-23.23-29.328-33.475l-0.056-0.035 c8.923-12.811,18.909-24.692,29.37-35.636c10.462,10.937,20.434,22.811,29.343,35.615 C273.776,448.081,263.832,459.227,254.7,471.311z M319.623,429.465c-2.336,12.853-4.336,26.363-5.916,40.321 c-4.951-10.748-10.602-21.035-16.965-30.769c3.944-3.748,7.874-7.37,11.818-10.882c2.755-2.455,5.51-4.832,8.251-7.098 c1.777-1.504,3.553-2.916,5.315-4.357C321.273,420.877,320.42,425.074,319.623,429.465z M326.224,398.024 c-0.294,1.203-0.546,2.518-0.839,3.749c-1.874,1.434-3.749,2.832-5.636,4.322c-5.931,4.756-12,9.755-18,15.063 c-3.58,3.105-7.077,6.371-10.574,9.644l-0.014,0.014c-9.077-12.825-19.133-24.706-29.622-35.622 c5.188-5.118,10.433-10.049,15.72-14.706c6.951-6.125,13.902-11.832,20.741-17.161c8.126,8.231,16.629,17.511,25.132,27.636 c1.259,1.469,2.476,3,3.72,4.518C326.644,396.347,326.434,397.157,326.224,398.024z M343.091,338.878v0.063 c-4.14,12.322-8.825,27.448-13.3,44.79c-1.259-1.482-2.49-3.007-3.776-4.447c-6.756-7.861-13.567-15.176-20.196-21.91 c14.923-11.126,28.91-20.21,40.364-27.259C345.189,332.863,344.168,335.773,343.091,338.878z"/> <path class="st0" d="M0,4.22v390.266h139.958c-3.482-13.497-7.063-25.538-10.378-35.804H35.804V40.025h440.392v318.657h-96.447 c-1.651,5.105-3.371,10.63-5.12,16.608c-1.874,6.315-3.51,12.763-5.146,19.196H512v-17.902V4.22H0z"/> </g> </g>
</svg>