<!DOCTYPE svg PUBLIC "-//W3C//DTD SVG 1.1//EN" "http://www.w3.org/Graphics/SVG/1.1/DTD/svg11.dtd">
<!-- Uploaded to: SVG Repo, www.svgrepo.com, Transformed by: SVG Repo Mixer Tools -->
<svg height="800px" width="800px" version="1.1" id="_x32_" xmlns="http://www.w3.org/2000/svg" xmlns:xlink="http://www.w3.org/1999/xlink" viewBox="0 0 512 512" xml:space="preserve" fill="#FDA31B">
<g id="SVGRepo_bgCarrier" stroke-width="0"/>
<g id="SVGRepo_tracerCarrier" stroke-linecap="round" stroke-linejoin="round"/>
<g id="SVGRepo_iconCarrier"> <style type="text/css"> .st0{fill:#FDA31B;} </style> <g> <path class="st0" d="M188.92,1.279C183.735,0.465,178.421,0,173.01,0c-6.785,0-13.379,0.712-19.788,1.984 c-0.916,3.372-1.984,7.545-2.989,12.202c-1.238,5.746-2.34,12.168-2.886,18.461c8.331-3.249,15.15-7.626,21.196-12.449 C176.232,14.063,182.559,7.251,188.92,1.279z"/> <path class="st0" d="M135.411,36.033c0.41-8.447,1.778-16.942,3.365-24.316c0.472-2.189,0.958-4.275,1.437-6.232 c-14.651,4.979-27.791,13.208-38.612,23.886c7.38,4.658,16.081,7.264,25.759,7.277C129.973,36.648,132.668,36.423,135.411,36.033z"/> <path class="st0" d="M149.187,275.118v-53.372c-7.21-1.402-14.214-3.434-21.012-6.163v59.536H149.187z"/> <path class="st0" d="M287.799,145.049l-3.146,7.004c-0.636,1.402-1.266,2.736-1.895,3.994h80.056v119.071h21.012V135.035h-93.222 l0.28,0.137c-0.28,1.122-0.629,2.176-0.978,3.297L287.799,145.049z"/> <path class="st0" d="M124.583,302.437c0,5.882,4.76,10.643,10.643,10.643h241.547c5.876,0,10.65-4.761,10.65-10.643 c0-5.889-4.774-10.65-10.65-10.65H135.226C129.343,291.787,124.583,296.548,124.583,302.437z"/> <path class="st0" d="M371.287,320.925l0.212-0.417h-20.589c-0.424,1.046-0.916,2.168-1.402,3.502 c-12.75,7.558-31.381,18.98-51.621,34.104c-2.244-2.168-4.48-4.336-6.656-6.368c-13.03-11.976-24.726-21.012-33.967-26.34 l-2.524-1.539l-2.593,1.539c-9.241,5.328-20.868,14.364-33.899,26.34c-2.244,2.1-4.48,4.132-6.724,6.368 c-20.239-15.123-38.803-26.546-51.552-34.104c-0.486-1.266-0.979-2.456-1.395-3.502h-20.664 c1.751,3.919,15.198,35.65,26.614,82.018c0.698,2.798,1.402,5.67,2.1,8.544c0.424,1.962,0.91,3.994,1.334,6.094 c0.561,2.168,0.978,4.412,1.471,6.655c5.602,26.539,10.014,56.662,11.204,88.181l19.193-0.705 c-0.144-3.919-0.424-7.77-0.629-11.552v-0.075c-0.068-1.259-0.212-2.449-0.349-3.64c5.533-15.759,12.955-30.609,21.71-44.336h0.068 c9.946,10.089,19.474,20.944,28.161,32.776c-5.677,8.195-10.93,16.813-15.691,25.78h11.067c3.29-5.882,6.792-11.696,10.575-17.229 c3.782,5.533,7.284,11.347,10.574,17.229h11.068c-4.761-8.967-10.014-17.585-15.691-25.78c8.686-11.833,18.215-22.688,28.16-32.776 c8.823,13.727,16.177,28.509,21.71,44.268c-0.068,1.19-0.205,2.38-0.349,3.57c-0.212,3.92-0.492,7.846-0.63,11.765L328.777,512 c1.258-31.519,5.67-61.498,11.204-88.044v-0.069c0.492-2.311,1.054-4.556,1.47-6.723c0.424-2.1,0.985-4.132,1.402-6.094 c0.63-2.942,1.334-5.746,2.032-8.544c2.244-9.316,4.624-18.003,7.004-25.985c5.11-17.51,10.089-31.662,13.796-41.471 c1.82-4.973,3.365-8.755,4.412-11.272C370.659,322.532,371.082,321.554,371.287,320.925z M224.974,358.47 c11.484-10.506,21.854-18.564,29.768-23.605c7.982,5.041,18.283,13.098,29.699,23.605c1.888,1.751,3.851,3.571,5.814,5.533 c-6.656,5.178-13.38,10.712-20.103,16.669c-5.185,4.548-10.294,9.385-15.41,14.426c-5.11-5.041-10.295-9.877-15.479-14.426 c-6.724-5.958-13.447-11.56-20.102-16.744C221.123,362.041,223.154,360.221,224.974,358.47z M168.243,346.842v-0.068 c-1.053-3.016-2.107-5.89-3.017-8.55c11.211,6.867,24.87,15.76,39.433,26.69c-6.443,6.512-13.024,13.584-19.748,21.293 c-1.19,1.395-2.455,2.941-3.646,4.411C176.854,373.668,172.305,358.887,168.243,346.842z M196.957,474.872 c-1.54-13.727-3.502-26.963-5.746-39.5c-0.835-4.276-1.608-8.406-2.517-12.538c1.751,1.402,3.502,2.805,5.253,4.276 c2.661,2.236,5.458,4.624,8.126,7.004c3.851,3.434,7.702,6.936,11.553,10.575C207.395,454.284,201.861,464.366,196.957,474.872z M219.023,436.774c-3.434-3.29-6.868-6.443-10.37-9.528c-5.883-5.177-11.765-10.082-17.579-14.706 c-1.895-1.47-3.714-2.804-5.534-4.206c-0.281-1.259-0.561-2.517-0.841-3.708c-0.137-0.909-0.349-1.682-0.561-2.523l0.28-0.349 c1.054-1.402,2.244-2.729,3.366-4.063c8.263-9.877,16.526-18.913,24.583-26.963c6.655,5.178,13.447,10.786,20.239,16.737 c5.184,4.624,10.37,9.385,15.41,14.426C237.723,412.608,227.915,424.236,219.023,436.774z M254.741,476.35 c-8.967-11.772-18.632-22.764-28.714-32.784c8.679-12.537,18.488-24.166,28.714-34.877c10.225,10.712,19.959,22.34,28.714,34.877 C273.373,453.587,263.708,464.51,254.741,476.35z M318.271,435.372c-2.312,12.606-4.275,25.848-5.814,39.5 c-4.836-10.574-10.37-20.588-16.6-30.116c3.851-3.639,7.702-7.209,11.56-10.643c2.729-2.38,5.39-4.768,8.05-6.936 c1.751-1.471,3.502-2.873,5.253-4.275C319.879,427.04,319.037,431.096,318.271,435.372z M324.714,404.626 c-0.28,1.191-0.561,2.518-0.841,3.708c-1.82,1.402-3.646,2.736-5.534,4.206c-5.814,4.692-11.696,9.529-17.578,14.706 c-3.502,3.086-6.936,6.239-10.369,9.46c-8.892-12.538-18.701-24.166-28.927-34.816c5.042-5.041,10.158-9.802,15.343-14.426 c6.792-5.951,13.584-11.56,20.308-16.737c7.914,8.05,16.252,17.086,24.59,27.032c1.19,1.402,2.381,2.941,3.638,4.411 C325.132,403.012,324.927,403.785,324.714,404.626z M341.171,346.774v0.068c-4.063,12.046-8.612,26.895-12.955,43.844 c-1.258-1.471-2.456-2.941-3.714-4.343c-6.58-7.702-13.304-14.849-19.754-21.43c14.569-10.93,28.229-19.754,39.44-26.69 C343.271,340.884,342.225,343.757,341.171,346.774z"/> <path class="st0" d="M40.623,366.172V54.487h19.124c2.873-7.004,6.443-13.659,10.644-20.034c2.106-3.221,4.418-6.368,6.867-9.384 l4.481-5.602H5.602v381.726h136.936c-3.433-13.167-6.936-25.007-10.157-35.021H40.623z"/> <path class="st0" d="M264.057,19.467c8.967,10.014,16.389,21.505,21.786,34.247l0.349,0.773h185.186v311.684h-94.344 c-1.608,4.973-3.29,10.37-4.972,16.252c-1.82,6.163-3.434,12.463-5.041,18.769h139.379V19.467H264.057z"/> <path class="st0" d="M271.499,77.032c-6.977-3.79-16.265-7.032-26.977-9.33c-12.12-2.626-26.047-4.076-40.554-4.069 c-17.038-0.007-34.884,1.997-51.621,6.361c-1.054,0.294-2.1,0.609-3.146,0.903c1.361,8.721,3.139,17.202,5.274,25.39 c3.509-1.232,7.114-2.271,10.814-3.072c5.061-1.095,10.102-1.587,15.062-1.587c16.306,0.007,31.69,5.302,45.547,12.299 c13.865,7.004,26.3,15.766,36.67,23.098c2.571,1.826,4.972,3.509,7.277,5.109c3.037-9.644,4.726-19.904,4.726-30.574 c0-7.223-0.759-14.248-2.216-21.019v-0.034C272.108,79.337,271.78,78.195,271.499,77.032z"/> <path class="st0" d="M149.364,58.667h0.014c17.852-4.665,36.635-6.744,54.59-6.751c15.288,0,29.98,1.518,43.024,4.33 c7.024,1.519,13.55,3.42,19.481,5.684C254.891,34.61,231.69,13.393,203.079,4.556c-1.655,1.244-3.366,2.674-5.157,4.323 c-4.09,3.762-8.544,8.4-13.714,13.222c-9.214,8.612-20.917,17.763-37.265,23.098c0.007,4.713,0.13,9.371,0.637,13.981 C148.181,59.016,148.763,58.83,149.364,58.667z"/> <path class="st0" d="M71.539,105.658c6.683-8.161,14.829-15.514,23.769-21.915c12.592-9.002,26.771-16.177,40.896-21.074 c-0.089-0.732-0.191-1.423-0.273-2.154v0.006c-0.465-4.336-0.609-8.55-0.657-12.674c-2.674,0.308-5.315,0.52-7.914,0.52 c-12.517,0.007-24.117-3.618-33.728-10.15C79.74,55.582,71.45,77.558,71.45,101.56C71.45,102.942,71.491,104.303,71.539,105.658z"/> <path class="st0" d="M102.141,93.27c-11.895,8.495-21.95,18.653-28.421,29.638C77.606,141,86.286,157.319,98.4,170.452 c0.075-0.212,0.144-0.41,0.212-0.615c1.471-4.515,3.14-9.768,5.226-15.397c4.186-11.238,10.028-23.995,19.536-35.417 c5.438-6.539,12.188-12.572,20.349-17.599c-2.339-8.673-4.323-17.641-5.828-26.895C125.527,79.036,113.071,85.432,102.141,93.27z"/> <path class="st0" d="M125.035,136.868c-6.498,10.684-10.554,22.134-13.748,31.867c-1.272,3.878-2.394,7.408-3.53,10.63 c17.688,14.829,40.37,23.755,65.254,23.755c9.72,0,19.097-1.388,27.996-3.933c-10.499-8.769-20.144-19.822-28.66-32.681 c-10.192-15.424-18.762-33.475-25.199-53.414C137.497,119.672,130.438,127.976,125.035,136.868z"/> <path class="st0" d="M213.975,194.44c20.062-8.85,36.751-23.974,47.462-42.934l0.007-0.007c1.491-2.634,2.818-5.342,4.07-8.105 c-3.058-2.08-6.293-4.378-9.72-6.799c-6.888-4.877-14.502-10.24-22.634-15.192c-16.266-9.938-34.556-18.099-52.811-18.057 c-4.172,0-8.372,0.41-12.586,1.32c-3.509,0.766-6.813,1.806-10.034,2.968c6.204,19.747,14.542,37.517,24.398,52.408 C191.608,174.379,202.449,186.062,213.975,194.44z"/> <path class="st0" d="M95.294,189.276l-0.438-0.389c-0.007-0.007-0.014-0.014-0.028-0.021L95.294,189.276z"/> </g> </g>
</svg>