<!DOCTYPE svg PUBLIC "-//W3C//DTD SVG 1.1//EN" "http://www.w3.org/Graphics/SVG/1.1/DTD/svg11.dtd">
<!-- Uploaded to: SVG Repo, www.svgrepo.com, Transformed by: SVG Repo Mixer Tools -->
<svg height="800px" width="800px" version="1.1" id="_x32_" xmlns="http://www.w3.org/2000/svg" xmlns:xlink="http://www.w3.org/1999/xlink" viewBox="0 0 512 512" xml:space="preserve" fill="#FDA31B">
<g id="SVGRepo_bgCarrier" stroke-width="0"/>
<g id="SVGRepo_tracerCarrier" stroke-linecap="round" stroke-linejoin="round"/>
<g id="SVGRepo_iconCarrier"> <style type="text/css"> .st0{fill:#FDA31B;} </style> <g> <path class="st0" d="M327.634,230.704c0.812-5.301,1.243-10.734,1.288-16.284l-12.602-12.604l10.617-10.617 c-0.836-4.783-1.916-9.56-3.265-14.316l-16.138,16.146l-32.917-32.919l28.191-28.184c-2.295-3.486-4.735-6.91-7.296-10.278 l-29.685,29.675l-35.025-35.024l30.19-30.186c-3.252-2.679-6.534-5.274-9.86-7.718l-29.117,29.116l-33.616-33.617l19.524-19.521 c-4.397-1.712-8.78-3.175-13.146-4.431L179.61,65.106l-20.329-20.329c-5.529,0.042-10.948,0.49-16.228,1.346l27.767,27.77 l-36.916,36.916L93.405,70.318c-1.37,1.243-2.733,2.512-4.076,3.852c-1.629,1.636-3.18,3.3-4.67,4.977l40.457,40.457L88.2,156.52 l-27.121-27.128c-0.797,5.364-1.212,10.83-1.153,16.429l19.483,19.48l-14.33,14.33c1.256,4.377,2.734,8.767,4.431,13.15 l18.69-18.686l33.613,33.617L93.56,235.957c2.45,3.341,5.004,6.64,7.69,9.892l29.354-29.351l35.025,35.025l-28.847,28.847 c3.376,2.561,6.802,4.997,10.289,7.289l27.346-27.348l32.916,32.912l-15.303,15.304c4.78,1.36,9.553,2.451,14.295,3.286 l9.795-9.795l11.769,11.769c5.598,0.028,11.103-0.338,16.494-1.09l-19.473-19.473l36.917-36.916l33.665,33.671 c1.718-1.484,3.403-3.009,5.022-4.624c1.325-1.332,2.606-2.692,3.845-4.087l-33.745-33.74l36.92-36.923L327.634,230.704z M257.039,160.109l-36.916,36.923l-35.028-35.031l36.919-36.91L257.039,160.109z M179.61,82.688l33.614,33.61l-36.917,36.916 l-33.616-33.61L179.61,82.688z M96.988,165.3l36.916-36.917l33.617,33.617l-36.916,36.916L96.988,165.3z M139.391,207.704 l36.916-36.91l35.025,35.025l-36.913,36.916L139.391,207.704z M216.123,284.442l-32.916-32.919l36.916-36.916l32.916,32.919 L216.123,284.442z M261.827,238.732L228.91,205.82l36.917-36.916l32.916,32.913L261.827,238.732z"/> <path class="st0" d="M490.999,433.985c-1.981-1.982-10.458-10.271-20.236-19.846c-13.619-13.33-22.348-21.73-27.369-26.748 c-0.949-0.953-1.888-1.905-2.81-2.858c-16.898-17.402-31.946-40.602-43.491-67.081c-12.701-29.089-20.691-60.607-23.746-93.692 l-0.014-0.187l0.01-0.193c1.201-19.494-1.073-39.415-6.751-59.206c-9.829-34.238-29.557-66.868-57.048-94.361 c-18.696-18.7-39.09-34.065-60.614-45.69c-16.2-8.739-32.815-15.206-49.39-19.231c-26.034-6.31-51.277-6.516-75.044-0.622 C99.7,10.394,76.635,23.585,57.8,42.416l-0.193,0.194c-17.009,17.008-29.095,36.75-35.932,58.68 c-4.905,15.684-7.052,32.332-6.388,49.493c0.962,24.781,7.637,49.99,19.842,74.93c11.98,24.484,28.75,47.595,49.832,68.682 c36.595,36.585,81.956,59.095,127.74,63.396c8.728,0.814,17.619,0.939,26.424,0.359h0.283c34.507,1.67,66.574,9.236,95.32,22.524 c23.836,11.024,45.69,26.085,64.952,44.764c0.959,0.932,1.919,1.878,2.875,2.837c5.022,5.018,13.423,13.744,26.755,27.363 c9.564,9.782,17.862,18.258,19.846,20.239c3.932,3.934,14.51,11.645,27.76-1.609l10.744-10.74l-0.024-0.02l1.76-1.761 C502.648,448.494,494.934,437.919,490.999,433.985z M188.239,320.378c-28.985-8.311-56.792-25.195-80.424-48.837 c-16.481-16.47-29.969-34.341-40.102-53.117c-7.423-13.75-12.894-27.763-16.256-41.644c-5.07-20.923-5.294-40.996-0.67-59.654 c4.843-19.39,14.855-36.798,29.748-51.729l0.004-0.007c13.305-13.281,28.63-22.71,45.545-28.019 c12.145-3.789,25.132-5.452,38.6-4.935c20.243,0.774,41.092,6.35,61.974,16.567c21.274,10.409,41.472,25.092,60.037,43.667 c31.304,31.29,50.504,69.608,54.066,107.891c1.691,18.085-0.146,35.348-5.45,51.322c-5.381,16.146-14.134,30.372-26.017,42.266 c-11.894,11.88-26.113,20.626-42.27,26.017C242.926,328.178,215.684,328.254,188.239,320.378z M383.501,371.038 c-11.224-7.455-23.072-14.088-35.211-19.701c-11.272-5.218-23.183-9.726-35.397-13.398l-4.98-1.498l4.297-2.94 c7.189-4.908,13.888-10.451,19.963-16.526c6.606-6.606,12.65-14.074,17.964-22.199l2.909-4.439l1.554,5.081 c3.672,12.052,8.007,23.814,12.874,34.963c5.743,13.136,12.311,25.678,19.518,37.275L383.501,371.038z"/> <path class="st0" d="M107.445,387.598c-34.355,0.007-62.194,27.839-62.201,62.201c0.007,34.356,27.842,62.194,62.201,62.201 c34.359-0.007,62.195-27.846,62.201-62.201C169.639,415.437,141.8,387.605,107.445,387.598z M133.434,475.788 c-6.692,6.675-15.801,10.761-25.99,10.768c-10.188-0.007-19.296-4.093-25.988-10.768c-6.672-6.696-10.762-15.801-10.769-25.99 c0.007-10.188,4.097-19.3,10.769-25.996c6.692-6.668,15.8-10.755,25.988-10.762c10.189,0.007,19.297,4.093,25.99,10.762 c6.671,6.695,10.762,15.807,10.768,25.996C144.196,459.988,140.105,469.092,133.434,475.788z"/> </g> </g>
</svg>